<svg width="800px" height="800px" viewBox="0 0 24 24" fill="none" xmlns="http://www.w3.org/2000/svg">
<path d="M12 2C6.47715 2 2 6.47715 2 12C2 17.5228 6.47715 22 12 22C17.5228 22 22 17.5228 22 12C22 6.47715 17.5228 2 12 2ZM12 4C16.4183 4 20 7.58172 20 12C20 16.4183 16.4183 20 12 20C7.58172 20 4 16.4183 4 12C4 7.58172 7.58172 4 12 4Z" fill="#A855F7"/>
<path d="M12 7V17M12 17L9 14M12 17L15 14" stroke="#A855F7" stroke-width="2" stroke-linecap="round" stroke-linejoin="round"/>
<circle cx="9" cy="9" r="1" fill="#A855F7"/>
<circle cx="15" cy="9" r="1" fill="#A855F7"/>
<circle cx="7" cy="13" r="1" fill="#A855F7"/>
<circle cx="17" cy="13" r="1" fill="#A855F7"/>
<path d="M9 9L7 13M15 9L17 13" stroke="#A855F7" stroke-width="1" stroke-linecap="round"/>
</svg>